HIERARCHY
ROOT Hips
{
  OFFSET 0.000000 0.000000 0.000000
  CHANNELS 6 Xposition Yposition Zposition Zrotation Yrotation Xrotation
  JOINT Spine1
  {
    OFFSET -0.013727 5.003763 -0.053727
    CHANNELS 3 Zrotation Yrotation Xrotation
    JOINT Spine2
    {
      OFFSET -0.000000 7.125301 -0.029825
      CHANNELS 3 Zrotation Yrotation Xrotation
      JOINT Chest
      {
        OFFSET -0.000001 7.550063 -0.815971
        CHANNELS 3 Zrotation Yrotation Xrotation
        JOINT Neck1
        {
          OFFSET -0.181677 26.311295 -0.553348
          CHANNELS 3 Zrotation Yrotation Xrotation
          JOINT Neck2
          {
            OFFSET -0.000003 7.709397 2.302585
            CHANNELS 3 Zrotation Yrotation Xrotation
            JOINT Head
            {
              OFFSET -0.000005 6.128916 1.953709
              CHANNELS 3 Zrotation Yrotation Xrotation
              JOINT HeadEnd
              {
                OFFSET 0.003598 16.065403 -1.835379
                CHANNELS 3 Zrotation Yrotation Xrotation
                End Site
                {
                  OFFSET 0.0 1.0 0.0
                }
              }
              JOINT Jaw
              {
                OFFSET 0.002637 0.475592 3.094941
                CHANNELS 3 Zrotation Yrotation Xrotation
                End Site
                {
                  OFFSET 0.0 1.0 0.0
                }
              }
              JOINT LeftEye
              {
                OFFSET 3.206381 5.380205 7.586883
                CHANNELS 3 Zrotation Yrotation Xrotation
                End Site
                {
                  OFFSET 0.0 1.0 0.0
                }
              }
              JOINT RightEye
              {
                OFFSET -3.222440 5.361869 7.558234
                CHANNELS 3 Zrotation Yrotation Xrotation
                End Site
                {
                  OFFSET 0.0 1.0 0.0
                }
              }
            }
          }
        }
        JOINT LeftShoulder
        {
          OFFSET 1.621652 23.237164 5.113413
          CHANNELS 3 Zrotation Yrotation Xrotation
          JOINT LeftArm
          {
            OFFSET 14.919846 0.000002 -5.502326
            CHANNELS 3 Zrotation Yrotation Xrotation
            JOINT LeftForeArm
            {
              OFFSET 28.739307 0.000000 -0.002588
              CHANNELS 3 Zrotation Yrotation Xrotation
              JOINT LeftHand
              {
                OFFSET 27.093981 -0.000001 0.002609
                CHANNELS 3 Zrotation Yrotation Xrotation
                JOINT LeftHandThumb1
                {
                  OFFSET 2.276482 -1.392045 3.191413
                  CHANNELS 3 Zrotation Yrotation Xrotation
                  JOINT LeftHandThumb2
                  {
                    OFFSET 4.012836 -1.828127 1.641654
                    CHANNELS 3 Zrotation Yrotation Xrotation
                    JOINT LeftHandThumb3
                    {
                      OFFSET 2.798515 0.000000 -0.000003
                      CHANNELS 3 Zrotation Yrotation Xrotation
                      JOINT LeftHandThumbEnd
                      {
                        OFFSET 3.180793 -0.000004 0.000004
                        CHANNELS 3 Zrotation Yrotation Xrotation
                        End Site
                        {
                          OFFSET 0.0 1.0 0.0
                        }
                      }
                    }
                  }
                }
                JOINT LeftHandIndex1
                {
                  OFFSET 3.247555 -0.531998 2.296169
                  CHANNELS 3 Zrotation Yrotation Xrotation
                  JOINT LeftHandIndex2
                  {
                    OFFSET 6.364578 0.012060 0.178600
                    CHANNELS 3 Zrotation Yrotation Xrotation
                    JOINT LeftHandIndex3
                    {
                      OFFSET 3.662364 0.000000 0.000000
                      CHANNELS 3 Zrotation Yrotation Xrotation
                      JOINT LeftHandIndex4
                      {
                        OFFSET 2.329242 0.000004 0.000004
                        CHANNELS 3 Zrotation Yrotation Xrotation
                        JOINT LeftHandIndexEnd
                        {
                          OFFSET 2.759615 -0.180537 -0.113024
                          CHANNELS 3 Zrotation Yrotation Xrotation
                          End Site
                          {
                            OFFSET 0.0 1.0 0.0
                          }
                        }
                      }
                    }
                  }
                }
                JOINT LeftHandMiddle1
                {
                  OFFSET 3.163495 0.240981 1.000332
                  CHANNELS 3 Zrotation Yrotation Xrotation
                  JOINT LeftHandMiddle2
                  {
                    OFFSET 6.190780 -0.259278 -1.002548
                    CHANNELS 3 Zrotation Yrotation Xrotation
                    JOINT LeftHandMiddle3
                    {
                      OFFSET 4.356520 -0.000004 -0.000001
                      CHANNELS 3 Zrotation Yrotation Xrotation
                      JOINT LeftHandMiddle4
                      {
                        OFFSET 2.996877 -0.000008 0.000000
                        CHANNELS 3 Zrotation Yrotation Xrotation
                        JOINT LeftHandMiddleEnd
                        {
                          OFFSET 2.304287 -0.294569 -0.031741
                          CHANNELS 3 Zrotation Yrotation Xrotation
                          End Site
                          {
                            OFFSET 0.0 1.0 0.0
                          }
                        }
                      }
                    }
                  }
                }
                JOINT LeftHandRing1
                {
                  OFFSET 2.882643 -0.053652 -0.322543
                  CHANNELS 3 Zrotation Yrotation Xrotation
                  JOINT LeftHandRing2
                  {
                    OFFSET 5.854541 -0.486202 -1.373841
                    CHANNELS 3 Zrotation Yrotation Xrotation
                    JOINT LeftHandRing3
                    {
                      OFFSET 4.350578 0.000000 0.000003
                      CHANNELS 3 Zrotation Yrotation Xrotation
                      JOINT LeftHandRing4
                      {
                        OFFSET 2.651321 0.000007 0.000002
                        CHANNELS 3 Zrotation Yrotation Xrotation
                        JOINT LeftHandRingEnd
                        {
                          OFFSET 1.936105 0.077687 -0.000071
                          CHANNELS 3 Zrotation Yrotation Xrotation
                          End Site
                          {
                            OFFSET 0.0 1.0 0.0
                          }
                        }
                      }
                    }
                  }
                }
                JOINT LeftHandPinky1
                {
                  OFFSET 2.865500 -0.310005 -1.600378
                  CHANNELS 3 Zrotation Yrotation Xrotation
                  JOINT LeftHandPinky2
                  {
                    OFFSET 5.087849 -1.331141 -1.771230
                    CHANNELS 3 Zrotation Yrotation Xrotation
                    JOINT LeftHandPinky3
                    {
                      OFFSET 3.070974 0.000004 0.000000
                      CHANNELS 3 Zrotation Yrotation Xrotation
                      JOINT LeftHandPinky4
                      {
                        OFFSET 1.549672 0.000000 0.000001
                        CHANNELS 3 Zrotation Yrotation Xrotation
                        JOINT LeftHandPinkyEnd
                        {
                          OFFSET 1.944893 -0.157802 0.057219
                          CHANNELS 3 Zrotation Yrotation Xrotation
                          End Site
                          {
                            OFFSET 0.0 1.0 0.0
                          }
                        }
                      }
                    }
                  }
                }
              }
            }
          }
        }
        JOINT RightShoulder
        {
          OFFSET -1.380118 23.180309 5.214158
          CHANNELS 3 Zrotation Yrotation Xrotation
          JOINT RightArm
          {
            OFFSET -15.037196 0.000012 -5.545604
            CHANNELS 3 Zrotation Yrotation Xrotation
            JOINT RightForeArm
            {
              OFFSET -28.736639 0.000002 -0.002597
              CHANNELS 3 Zrotation Yrotation Xrotation
              JOINT RightHand
              {
                OFFSET -27.133619 -0.000000 0.002613
                CHANNELS 3 Zrotation Yrotation Xrotation
                JOINT RightHandThumb1
                {
                  OFFSET -2.274032 -1.383988 3.163127
                  CHANNELS 3 Zrotation Yrotation Xrotation
                  JOINT RightHandThumb2
                  {
                    OFFSET -4.011429 -1.827466 1.640914
                    CHANNELS 3 Zrotation Yrotation Xrotation
                    JOINT RightHandThumb3
                    {
                      OFFSET -2.794935 -0.000004 -0.000003
                      CHANNELS 3 Zrotation Yrotation Xrotation
                      JOINT RightHandThumbEnd
                      {
                        OFFSET -3.183852 0.000004 0.000001
                        CHANNELS 3 Zrotation Yrotation Xrotation
                        End Site
                        {
                          OFFSET 0.0 1.0 0.0
                        }
                      }
                    }
                  }
                }
                JOINT RightHandIndex1
                {
                  OFFSET -3.253266 -0.520057 2.282866
                  CHANNELS 3 Zrotation Yrotation Xrotation
                  JOINT RightHandIndex2
                  {
                    OFFSET -6.341917 0.012471 0.178266
                    CHANNELS 3 Zrotation Yrotation Xrotation
                    JOINT RightHandIndex3
                    {
                      OFFSET -3.654871 -0.000008 -0.000000
                      CHANNELS 3 Zrotation Yrotation Xrotation
                      JOINT RightHandIndex4
                      {
                        OFFSET -2.327586 0.000000 0.000001
                        CHANNELS 3 Zrotation Yrotation Xrotation
                        JOINT RightHandIndexEnd
                        {
                          OFFSET -2.761790 -0.180656 -0.113078
                          CHANNELS 3 Zrotation Yrotation Xrotation
                          End Site
                          {
                            OFFSET 0.0 1.0 0.0
                          }
                        }
                      }
                    }
                  }
                }
                JOINT RightHandMiddle1
                {
                  OFFSET -3.168106 0.246593 1.001030
                  CHANNELS 3 Zrotation Yrotation Xrotation
                  JOINT RightHandMiddle2
                  {
                    OFFSET -6.180828 -0.258836 -1.000895
                    CHANNELS 3 Zrotation Yrotation Xrotation
                    JOINT RightHandMiddle3
                    {
                      OFFSET -4.348901 0.000000 -0.000000
                      CHANNELS 3 Zrotation Yrotation Xrotation
                      JOINT RightHandMiddle4
                      {
                        OFFSET -3.000240 -0.000004 -0.000002
                        CHANNELS 3 Zrotation Yrotation Xrotation
                        JOINT RightHandMiddleEnd
                        {
                          OFFSET -2.302520 -0.294370 -0.031706
                          CHANNELS 3 Zrotation Yrotation Xrotation
                          End Site
                          {
                            OFFSET 0.0 1.0 0.0
                          }
                        }
                      }
                    }
                  }
                }
                JOINT RightHandRing1
                {
                  OFFSET -2.885690 -0.067952 -0.308858
                  CHANNELS 3 Zrotation Yrotation Xrotation
                  JOINT RightHandRing2
                  {
                    OFFSET -5.854198 -0.486130 -1.373731
                    CHANNELS 3 Zrotation Yrotation Xrotation
                    JOINT RightHandRing3
                    {
                      OFFSET -4.338810 -0.000004 -0.000000
                      CHANNELS 3 Zrotation Yrotation Xrotation
                      JOINT RightHandRing4
                      {
                        OFFSET -2.654903 -0.000004 0.000004
                        CHANNELS 3 Zrotation Yrotation Xrotation
                        JOINT RightHandRingEnd
                        {
                          OFFSET -1.933568 0.077527 -0.000052
                          CHANNELS 3 Zrotation Yrotation Xrotation
                          End Site
                          {
                            OFFSET 0.0 1.0 0.0
                          }
                        }
                      }
                    }
                  }
                }
                JOINT RightHandPinky1
                {
                  OFFSET -2.866425 -0.342796 -1.584145
                  CHANNELS 3 Zrotation Yrotation Xrotation
                  JOINT RightHandPinky2
                  {
                    OFFSET -5.091371 -1.332055 -1.772385
                    CHANNELS 3 Zrotation Yrotation Xrotation
                    JOINT RightHandPinky3
                    {
                      OFFSET -3.062664 -0.000004 0.000001
                      CHANNELS 3 Zrotation Yrotation Xrotation
                      JOINT RightHandPinky4
                      {
                        OFFSET -1.546529 0.000004 -0.000002
                        CHANNELS 3 Zrotation Yrotation Xrotation
                        JOINT RightHandPinkyEnd
                        {
                          OFFSET -1.945119 -0.157718 0.057211
                          CHANNELS 3 Zrotation Yrotation Xrotation
                          End Site
                          {
                            OFFSET 0.0 1.0 0.0
                          }
                        }
                      }
                    }
                  }
                }
              }
            }
          }
        }
      }
    }
  }
  JOINT LeftLeg
  {
    OFFSET 10.043214 -8.434526 2.595655
    CHANNELS 3 Zrotation Yrotation Xrotation
    JOINT LeftShin
    {
      OFFSET -0.000001 -43.221752 -0.802913
      CHANNELS 3 Zrotation Yrotation Xrotation
      JOINT LeftFoot
      {
        OFFSET 0.000001 -42.155094 -3.481523
        CHANNELS 3 Zrotation Yrotation Xrotation
        JOINT LeftToeBase
        {
          OFFSET 0.000000 -5.059472 13.231529
          CHANNELS 3 Zrotation Yrotation Xrotation
          JOINT LeftToeEnd
          {
            OFFSET -0.009607 -1.647619 6.513017
            CHANNELS 3 Zrotation Yrotation Xrotation
            End Site
            {
              OFFSET 0.0 1.0 0.0
            }
          }
        }
      }
    }
  }
  JOINT RightLeg
  {
    OFFSET -10.047278 -8.295260 2.620317
    CHANNELS 3 Zrotation Yrotation Xrotation
    JOINT RightShin
    {
      OFFSET 0.000001 -43.362206 -0.805556
      CHANNELS 3 Zrotation Yrotation Xrotation
      JOINT RightFoot
      {
        OFFSET 0.000002 -42.117393 -3.478398
        CHANNELS 3 Zrotation Yrotation Xrotation
        JOINT RightToeBase
        {
          OFFSET -0.000000 -5.079609 13.284196
          CHANNELS 3 Zrotation Yrotation Xrotation
          JOINT RightToeEnd
          {
            OFFSET 0.009532 -1.634378 6.460591
            CHANNELS 3 Zrotation Yrotation Xrotation
            End Site
            {
              OFFSET 0.0 1.0 0.0
            }
          }
        }
      }
    }
  }
}
MOTION
Frames: 4
Frame Time: 0.033333
-27.249893 102.012924 -6.636080 157.360081 81.905624 163.448940 2.118793 -0.150994 3.044425 0.108455 1.943509 -13.796656 3.112596 6.881872 17.139681 -5.292945 4.275745 -12.146109 -18.178091 2.471484 13.043067 14.729313 27.594641 14.631786 -0.000026 0.000427 -0.002041 0.580809 0.317645 -7.898246 0.038568 -1.731142 -1.985174 -0.422555 0.067112 -2.094730 -4.803611 -7.536358 24.844398 -89.374643 -9.354460 27.805761 12.085590 -38.858188 -2.408721 35.191574 18.262242 -3.172860 -0.076400 45.562179 36.890567 4.851401 6.697197 -13.525891 6.231579 7.594949 -0.732273 0.000885 0.000480 -0.000219 13.721170 26.071095 7.859454 -87.527240 18.763666 3.936799 -30.511956 -11.428786 5.248683 -6.355060 -3.163719 2.384365 0.001151 -0.000891 0.000640 9.754409 15.407634 10.726032 -82.706692 7.260853 6.726298 -30.974201 -11.667054 2.383306 -0.317626 -2.517307 -1.687438 -0.001097 0.000973 -0.000506 12.791624 14.129829 -5.451406 -80.339837 16.636206 10.339449 -38.260209 -7.728514 0.041804 -27.783766 -3.035475 -9.524094 -0.000641 0.001385 0.000550 7.947928 12.208159 1.603722 -72.408379 5.867342 9.175262 -39.170964 -7.519862 2.071179 -21.750909 -0.737038 -11.745885 0.000283 0.000402 0.000725 -9.787930 19.380953 22.841911 102.102614 10.532026 25.525019 -20.903359 61.037031 -11.022908 -45.271126 -30.868514 4.389098 10.768267 -53.401028 42.027760 -5.418863 -3.785977 -15.985025 -3.228731 -5.849013 1.995518 -0.000606 0.004704 0.000550 -3.538703 -21.358254 8.007350 77.101176 -27.916737 5.194867 23.688928 7.862207 5.265024 2.885076 4.883631 6.309408 0.001630 -0.000415 -0.000229 -3.212477 -14.484898 10.614694 70.838762 -6.850828 9.615564 24.301714 6.425945 4.640140 -2.782148 2.394420 -0.421772 0.002257 -0.002290 0.001279 -8.207603 -11.745201 -2.927362 66.021175 -17.425847 17.586474 33.618541 5.921552 1.518093 23.903668 3.089224 -11.871806 0.004217 -0.012811 -0.002663 -5.541728 -11.739198 5.593018 54.793121 -0.909427 14.926825 35.998784 8.653239 2.053898 18.016847 -0.130544 -13.739802 0.004760 -0.008718 0.000241 -12.115324 -5.554857 -11.145242 1.639900 0.043689 21.865664 -1.860401 2.676478 -8.251052 4.470852 19.495089 8.932387 0.001948 0.000754 0.998741 -2.877312 -18.237593 1.607933 2.261692 -4.358812 29.136074 15.828428 -8.849083 -21.573893 -8.332680 -8.700956 0.839712 -0.001224 -0.000300 1.011070
-27.881264 103.459846 -6.423285 160.601812 69.514391 163.943589 2.100884 -0.929391 2.667945 -0.347000 2.461736 -13.582785 2.988630 6.828328 16.788664 -5.365764 4.479002 -11.909168 -18.246074 2.347515 12.055015 14.479289 28.608555 13.556083 0.000058 0.000383 -0.001444 0.594509 0.352134 -7.665246 0.033409 -1.799481 -2.044550 -0.428079 -0.016233 -2.132067 -5.729139 -7.027122 25.158942 -88.634250 -9.540700 27.161414 11.891250 -38.235033 -2.428189 30.250107 17.341649 -5.534067 -1.246276 42.781286 34.825089 4.878221 5.780193 -13.066898 5.769487 7.444577 -1.396240 0.000704 0.000572 -0.000025 13.201830 24.906681 6.965339 -83.634887 17.333545 5.133250 -28.933271 -10.949058 4.539340 -6.250322 -3.101460 3.276331 0.001073 -0.000985 0.000534 9.236593 14.740094 10.249182 -78.314366 6.668887 6.961636 -29.272474 -10.989684 1.636145 -0.106345 -2.694348 -0.659112 -0.001026 0.000837 -0.000294 11.972690 13.545907 -6.333418 -75.692170 16.212529 10.995251 -35.862226 -7.395108 -0.343398 -27.090412 -2.770207 -9.007781 -0.000466 0.001435 0.000389 6.965857 11.679077 0.494555 -67.637434 5.832135 9.499981 -36.706343 -7.119074 1.722179 -20.562283 -0.354326 -11.383360 0.000290 0.000421 0.000897 -11.124426 18.586931 23.055176 101.487963 10.405583 24.285920 -22.032075 64.182126 -11.741701 -45.510499 -30.415211 7.323611 11.916065 -53.530793 41.572604 -5.181036 -3.475405 -15.550175 -3.376924 -5.959743 2.086974 -0.000044 0.003650 0.000105 -2.461613 -21.290582 8.171243 76.470791 -27.408667 5.238650 24.775123 7.900578 5.387294 3.517486 4.685461 5.925734 0.001334 -0.000375 -0.000594 -2.756600 -14.531791 10.726381 70.876372 -7.155243 9.589558 25.956718 6.432983 4.859789 -1.708186 2.510396 -0.414553 0.001590 -0.001592 0.000988 -7.844760 -11.912974 -3.020373 66.421239 -17.412409 17.615783 35.173093 5.783172 1.684273 24.795209 3.118174 -11.816398 0.003241 -0.008955 -0.002057 -5.802939 -11.720986 5.703755 56.225507 -1.676878 14.805924 37.642096 8.770183 2.275995 18.995848 0.146451 -13.725300 0.002068 -0.005250 0.000484 -12.215944 -4.731541 -9.260778 1.500780 0.590886 20.864247 -1.145535 3.531518 -5.899222 3.494608 19.474038 9.022039 0.001803 0.000624 0.998604 -3.715427 -18.144579 4.032372 2.391455 -4.021891 28.941160 16.644192 -8.692251 -20.492162 -8.217847 -7.935248 0.961737 -0.001144 -0.000097 1.007594
-28.516558 104.000702 -6.197543 163.364551 58.623134 165.453339 2.094144 -1.248633 2.820191 -0.467285 2.823678 -13.579311 2.707032 7.003224 16.461943 -5.366717 4.422126 -12.698254 -17.859255 2.154510 10.869504 14.632522 28.760290 14.880514 0.000146 0.000522 -0.001093 0.530664 0.389961 -7.484729 0.019308 -2.019172 -2.331129 -0.449437 -0.245499 -2.402728 -5.982432 -7.280587 25.086326 -88.183418 -9.657640 27.411443 12.078780 -39.086564 -2.069694 29.044571 17.687492 -6.763646 -1.201927 42.655984 34.404135 5.019518 5.889687 -13.111665 5.824266 7.868393 -1.312562 0.000686 0.000795 0.000303 13.447694 25.273570 6.819416 -82.887852 17.019766 5.263411 -27.270865 -10.154114 3.954074 -5.768382 -3.360997 4.560350 0.001108 -0.000980 0.000255 9.023298 15.023179 10.216939 -77.095937 6.327812 7.049414 -27.522699 -10.321695 1.132630 0.863872 -2.881563 0.341701 -0.001024 0.000866 -0.000131 11.594450 13.638409 -6.457209 -74.814031 16.071083 11.096924 -33.411635 -7.086525 -0.735315 -25.697646 -2.671835 -8.766700 -0.000349 0.001653 0.000352 6.275752 11.739006 0.161617 -66.910181 5.698038 9.513705 -34.411476 -6.936547 1.341779 -18.560077 0.077471 -11.267653 0.000226 0.000486 0.001113 -12.106435 18.418000 23.136169 101.126363 9.789854 22.965811 -23.788065 69.151812 -12.986979 -45.371080 -32.796099 8.838708 12.215112 -54.745054 42.058448 -5.011886 -4.067549 -15.269346 -3.306030 -6.554297 2.149093 0.000449 0.002999 -0.000209 -2.155120 -21.718670 8.713027 77.156952 -29.285248 4.455170 23.414032 7.188464 5.319064 2.742407 4.841186 7.259433 0.001263 -0.000357 -0.000870 -2.519807 -14.941155 11.146994 71.242060 -8.115809 9.448020 24.561485 5.401591 4.553476 -2.767830 2.507936 0.489713 0.001236 -0.001165 0.000930 -7.664544 -12.255782 -2.580419 66.693907 -18.122418 17.476686 33.501006 4.621004 1.479431 23.585280 2.678636 -11.134598 0.002652 -0.006435 -0.001646 -5.480666 -12.101103 6.153870 56.562430 -2.335662 14.650854 36.529155 7.407629 1.807738 17.468672 -0.547773 -13.046842 0.000293 -0.003016 0.000655 -12.065770 -4.368836 -9.481196 1.377368 0.670398 21.111663 -1.251042 3.292936 -4.298217 3.018134 19.430793 8.779005 0.001569 0.000523 0.998403 -3.306388 -17.533532 4.413743 2.959854 -3.760196 29.180175 16.960980 -8.277031 -19.771214 -8.397027 -7.739067 1.021335 -0.000870 0.000034 1.005318
-29.151619 104.690063 -5.962020 167.612634 50.729305 165.839596 1.843292 -1.376307 2.909921 -0.138262 2.858100 -13.977075 2.437491 7.090224 16.575565 -5.577566 4.223607 -14.545209 -17.374321 2.139694 10.372233 15.446308 29.213966 17.265932 -0.000080 0.001017 -0.001582 0.447645 0.476455 -7.842700 0.015451 -2.276915 -2.193461 -0.449620 -0.482799 -2.290128 -5.635974 -7.720499 25.222450 -87.970144 -10.680561 28.832885 11.947867 -38.604208 -1.811667 29.342391 17.258601 -5.662178 0.334866 45.382439 36.838651 5.708062 6.973393 -13.902957 6.368962 7.820160 -0.842036 0.001233 0.000893 0.000393 14.758159 26.508155 7.288666 -85.749755 17.759615 4.719378 -29.137681 -11.971155 4.785684 -6.851258 -3.139308 3.748344 0.001433 -0.001183 0.000318 9.898646 15.560202 10.488013 -79.648028 5.480575 7.384778 -29.218046 -12.387648 1.805090 -0.035700 -2.771258 -0.752324 -0.001558 0.001402 -0.000665 12.480287 13.898362 -6.141116 -78.010316 15.741658 10.957623 -35.389576 -8.588238 -0.450735 -27.608974 -3.390739 -9.737732 -0.000906 0.001988 0.000901 6.985426 11.889517 0.491321 -69.571952 4.640810 9.707189 -35.880414 -7.965222 1.703693 -20.956598 -0.833687 -11.999527 0.000464 0.000378 0.001345 -12.401230 18.440846 23.414103 101.305725 9.862186 22.759114 -27.355104 71.287707 -16.387586 -46.338774 -34.319419 10.973312 9.894475 -57.136347 44.927714 -5.037726 -4.453183 -15.552898 -3.192052 -5.788872 2.190488 0.000097 0.004027 0.000162 -2.853766 -22.484634 9.438713 78.408549 -32.034589 3.799123 22.612875 7.904543 5.504283 2.707470 4.720953 8.021968 0.001482 -0.000252 -0.000812 -2.768269 -15.174792 11.306844 70.980808 -8.442696 9.803739 22.738403 5.973346 4.545021 -3.473306 2.136758 0.087426 0.001672 -0.001999 0.001568 -8.052613 -12.472603 -2.099994 65.749013 -18.045531 17.885252 31.728621 5.719817 1.708788 23.399075 3.005572 -11.932239 0.003921 -0.009979 -0.002437 -5.580924 -12.390506 6.572105 54.913010 -1.806641 14.689488 34.558864 8.355052 1.738625 17.174761 -0.661549 -13.728613 0.002818 -0.006200 0.000769 -11.689211 -5.098579 -9.554184 2.023930 -0.229180 22.929908 -1.954014 1.443110 -2.397089 4.233080 22.799182 9.589315 0.001876 0.000968 0.998184 -2.126040 -17.390121 4.561862 2.940418 -3.666750 32.267993 17.409566 -6.783390 -19.355546 -9.352499 -8.544977 1.616429 -0.000846 -0.000461 1.008434
